<svg width="40" height="40" viewBox="0 0 40 40" fill="none" xmlns="http://www.w3.org/2000/svg">
<rect width="40" height="40" rx="6.25" fill="url(#paint0_linear_206_7755)"/>
<mask id="mask0_206_7755" style="mask-type:alpha" maskUnits="userSpaceOnUse" x="0" y="0" width="40" height="40">
<rect width="40" height="40" rx="6.25" fill="url(#paint1_linear_206_7755)"/>
</mask>
<g mask="url(#mask0_206_7755)">
<g filter="url(#filter0_d_206_7755)">
<path d="M29.0957 8.38867C28.3999 7.86788 27.524 7.76874 26.6455 7.90039C25.7666 8.03211 24.8678 8.39701 24.1025 8.8291C23.3738 9.24057 22.755 9.72018 22.3828 10.1309C18.759 9.8095 16.0337 10.2489 14.9961 10.543C14.2671 9.47313 12.2842 8.48829 10.0029 9.33105C7.64876 10.2009 5.01234 12.9983 3.06543 19.5537C1.61352 24.4425 1.55292 28.2908 2.39453 31.3135C3.23679 34.3381 4.97939 36.5235 7.11133 38.0898C11.2893 41.1594 16.9622 41.8526 20.3086 41.877C20.2386 42.2176 20.1677 42.5626 20.1865 42.8535C20.198 43.0295 20.2418 43.2001 20.3457 43.3447C20.451 43.491 20.6081 43.5969 20.8184 43.6611C20.9193 43.692 21.1086 43.7177 21.3467 43.7402C21.5908 43.7633 21.9022 43.7844 22.2568 43.8027C22.9662 43.8395 23.8546 43.8651 24.7412 43.874C25.6277 43.8829 26.5145 43.8752 27.2197 43.8428C27.5721 43.8266 27.8817 43.804 28.124 43.7744C28.245 43.7597 28.3515 43.743 28.4395 43.7236C28.5242 43.705 28.604 43.6813 28.6631 43.6484C28.759 43.5951 28.8586 43.533 28.9414 43.4404C29.0263 43.3453 29.0865 43.2266 29.1211 43.0693C29.1824 42.7905 29.1647 42.3753 29.0605 41.7139L32.9795 41.873C32.9294 42.2419 32.8809 42.6031 32.9014 42.8975C32.9133 43.0687 32.9482 43.2331 33.0293 43.3691C33.1135 43.5103 33.2416 43.612 33.417 43.6621C33.5222 43.6922 33.6961 43.7157 33.9092 43.7354C34.1262 43.7554 34.3961 43.7725 34.7002 43.7861C35.3087 43.8134 36.0602 43.828 36.8154 43.8291C37.5707 43.8302 38.3314 43.8177 38.958 43.791C39.5775 43.7647 40.0849 43.7239 40.3193 43.6631C40.4683 43.6244 40.5873 43.5466 40.6709 43.4258C40.7513 43.3093 40.7908 43.1647 40.8076 43.0049C40.8369 42.7256 40.8011 42.3518 40.7432 41.8916C40.9617 41.9057 41.3499 41.9335 41.8604 41.9697C42.5619 42.0195 43.4816 42.0792 44.4688 42.1191C46.4357 42.1986 48.6971 42.2003 50.0361 41.876L50.5947 41.7402L50.042 41.5811C48.6985 41.1943 47.1176 40.6527 45.9248 38.5508C44.7236 36.4339 43.9061 32.7164 44.1729 25.9443C44.2647 23.6104 43.0883 21.3419 41.623 19.5928C40.8889 18.7164 40.078 17.9649 39.3076 17.3955C38.5869 16.8628 37.8929 16.4843 37.3252 16.3145C37.2271 13.3536 36.0423 11.6511 34.5645 10.8965C33.1669 10.183 31.535 10.3335 30.3965 11.0332C30.2218 9.72697 29.7524 8.88024 29.0957 8.38867Z" fill="#BFFF59" stroke="#74B004" stroke-width="0.304666" stroke-linecap="round"/>
<path d="M14.9326 10.7206C13.6712 8.63705 7.09604 6.52058 3.21239 19.5974C-0.539856 32.2318 5.06178 37.7867 11.2673 40.1306C20.555 42.3773 26.8359 27.3779 28.8154 19.5974C21.7139 19.1108 16.6013 13.4768 14.9326 10.7206Z" fill="#D8FF98"/>
<path d="M20.4928 41.7278C13.8764 41.7278 -2.5733 39.0767 3.21181 19.5974C7.09545 6.52053 13.6706 8.63699 14.9321 10.7206M20.4928 41.7278L21.1093 38.2757M20.4928 41.7278C20.3285 42.547 20.123 43.2894 20.8627 43.5155C21.5321 43.72 27.9653 43.8619 28.5889 43.5155C28.9587 43.31 29.1436 43.0963 28.8817 41.5552M14.9321 10.7206C15.861 10.4329 18.664 9.94386 22.4449 10.2891M14.9321 10.7206C16.6007 13.4768 21.7134 19.1108 28.8148 19.5974M22.4449 10.2891C21.9928 10.7535 21.5818 11.1562 21.3353 11.4315M22.4449 10.2891C23.8435 8.66573 29.6984 5.60819 30.2738 11.2959M30.2738 11.2959C29.7669 11.6589 28.7655 12.6808 28.8148 13.8644M30.2738 11.2959C32.4654 9.72635 37.0367 10.4509 37.178 16.43M37.178 17.0083C37.1825 16.8103 37.1824 16.6175 37.178 16.43M28.8817 41.5552L28.3269 38.1031M28.8817 41.5552L33.1505 41.7278M33.1505 41.7278L33.6642 38.2757M33.1505 41.7278C33.0341 42.5949 32.9039 43.3569 33.4587 43.5155C34.1778 43.7209 39.4177 43.7392 40.2807 43.5155C40.7533 43.3929 40.7123 42.8292 40.5684 41.7278M40.5684 41.7278L39.9725 38.1031M40.5684 41.7278C41.041 41.7278 47.3698 42.3648 50 41.7278C47.2876 40.9469 43.4862 39.5004 44.0205 25.9386C44.2002 21.3769 39.4177 17.0083 37.178 16.43" stroke="#74B004" stroke-width="0.304666" stroke-linecap="round"/>
<path d="M22.4452 10.2891C21.9932 10.7535 21.5822 11.1562 21.3356 11.4315C23.4184 11.4622 27.8777 11.7723 29.0523 12.7672C28.8963 13.1037 28.799 13.4753 28.8152 13.8644C32.4317 13.8644 35.8975 15.9603 37.1783 17.0083C37.1828 16.8103 37.1827 16.6175 37.1783 16.43C37.0371 10.4509 32.4657 9.72635 30.2741 11.2959C29.6988 5.60819 23.8438 8.66573 22.4452 10.2891Z" fill="white"/>
<path d="M21.3356 11.4315C21.5822 11.1562 21.9932 10.7535 22.4452 10.2891C23.8438 8.66573 29.6988 5.60819 30.2741 11.2959M30.2741 11.2959C29.7672 11.6589 28.7659 12.6808 28.8152 13.8644M30.2741 11.2959C32.4657 9.72635 37.0371 10.4509 37.1783 16.43C37.1827 16.6175 37.1828 16.8103 37.1783 17.0083" stroke="#74B004" stroke-width="0.304666" stroke-linecap="round"/>
<circle cx="1.23289" cy="1.23289" r="1.23289" transform="matrix(-1 0 0 1 35.6172 11.7805)" fill="black"/>
<circle cx="1.23289" cy="1.23289" r="1.23289" transform="matrix(-1 0 0 1 29.2471 8.6167)" fill="black"/>
</g>
</g>
<defs>
<filter id="filter0_d_206_7755" x="1.09531" y="6.09531" width="54.6941" height="41.5347" filterUnits="userSpaceOnUse" color-interpolation-filters="sRGB">
<feFlood flood-opacity="0" result="BackgroundImageFix"/>
<feColorMatrix in="SourceAlpha" type="matrix" values="0 0 0 0 0 0 0 0 0 0 0 0 0 0 0 0 0 0 127 0" result="hardAlpha"/>
<feOffset dx="2" dy="1"/>
<feGaussianBlur stdDeviation="1.3"/>
<feComposite in2="hardAlpha" operator="out"/>
<feColorMatrix type="matrix" values="0 0 0 0 0 0 0 0 0 0 0 0 0 0 0 0 0 0 0.25 0"/>
<feBlend mode="normal" in2="BackgroundImageFix" result="effect1_dropShadow_206_7755"/>
<feBlend mode="normal" in="SourceGraphic" in2="effect1_dropShadow_206_7755" result="shape"/>
</filter>
<linearGradient id="paint0_linear_206_7755" x1="1.5" y1="6.31064e-07" x2="40" y2="40" gradientUnits="userSpaceOnUse">
<stop stop-color="#F8CBEB"/>
<stop offset="1" stop-color="#6DEDD4"/>
</linearGradient>
<linearGradient id="paint1_linear_206_7755" x1="1.5" y1="6.31064e-07" x2="40" y2="40" gradientUnits="userSpaceOnUse">
<stop stop-color="#F8CBEB"/>
<stop offset="1" stop-color="#6DEDD4"/>
</linearGradient>
</defs>
</svg>
