<svg width="308" height="308" viewBox="0 0 308 308" fill="none" xmlns="http://www.w3.org/2000/svg">
<rect width="308" height="308" rx="60" fill="white"/>
<circle cx="154" cy="154" r="130" fill="url(#paint0_linear_43_1519)"/>
<path d="M115.186 201.338L135.218 166.642L139.01 163.658L152.386 140.49L153.138 135.603L175.026 97.6921L195.312 109.404L173.424 147.315L169.568 150.41L156.256 173.467L155.504 178.354L135.472 213.05L115.186 201.338ZM157.621 159.327C162.655 153.168 168.079 148.466 173.894 145.222C179.709 141.977 185.696 140.31 191.857 140.221C198.06 140.058 204.081 141.662 209.919 145.033C216.053 148.574 220.6 153.072 223.56 158.525C226.521 163.979 227.807 169.943 227.418 176.419C227.146 182.864 225.09 189.412 221.25 196.063C217.41 202.714 212.746 207.806 207.258 211.337C201.887 214.838 196.099 216.67 189.896 216.833C183.693 216.996 177.525 215.307 171.391 211.765C165.553 208.395 161.132 204.019 158.129 198.64C155.168 193.186 153.639 187.13 153.542 180.472C153.487 173.74 154.847 166.692 157.621 159.327ZM200.521 184.095C202.483 180.696 203.546 177.319 203.709 173.964C203.915 170.536 203.262 167.4 201.751 164.556C200.282 161.639 197.959 159.263 194.781 157.429C189.977 154.655 184.715 153.785 178.995 154.818C173.349 155.894 168.146 158.506 163.385 162.655C162.215 168.778 162.554 174.591 164.403 180.092C166.369 185.562 169.753 189.684 174.557 192.457C177.735 194.292 180.933 195.153 184.151 195.04C187.412 194.854 190.454 193.851 193.277 192.033C196.144 190.14 198.558 187.494 200.521 184.095ZM150.638 155.295C145.646 161.38 140.222 166.082 134.365 169.4C128.55 172.645 122.541 174.349 116.338 174.512C110.177 174.601 104.178 172.96 98.3399 169.589C92.28 166.091 87.7329 161.593 84.6985 156.097C81.7379 150.643 80.3937 144.694 80.6659 138.249C81.0546 131.774 83.1689 125.21 87.0089 118.559C90.8489 111.908 95.4546 106.832 100.826 103.331C106.314 99.7994 112.159 97.952 118.362 97.7891C124.64 97.6689 130.808 99.3581 136.868 102.857C142.706 106.227 147.105 110.64 150.066 116.093C153.069 121.473 154.619 127.492 154.717 134.15C154.888 140.85 153.528 147.899 150.638 155.295ZM107.849 130.591C105.886 133.99 104.765 137.383 104.485 140.769C104.322 144.123 104.975 147.259 106.444 150.176C107.956 153.02 110.263 155.337 113.367 157.129C118.244 159.945 123.506 160.816 129.153 159.74C134.915 158.633 140.156 156.042 144.873 151.967C146.086 145.77 145.71 139.936 143.745 134.466C141.853 129.038 138.468 124.917 133.591 122.1C130.487 120.308 127.305 119.506 124.044 119.692C120.826 119.805 117.784 120.808 114.917 122.7C112.168 124.561 109.812 127.192 107.849 130.591Z" fill="white"/>
<defs>
<linearGradient id="paint0_linear_43_1519" x1="24" y1="24" x2="284" y2="284" gradientUnits="userSpaceOnUse">
<stop stop-color="#FF4D4D"/>
<stop offset="1" stop-color="#FFA500"/>
</linearGradient>
</defs>
</svg>
